<svg width="293" height="97" viewBox="0 0 293 97" fill="none" xmlns="http://www.w3.org/2000/svg">
<path d="M53.12 25.328V70H44.16V40.944L32.192 70H25.408L13.376 40.944V70H4.416V25.328H14.592L28.8 58.544L43.008 25.328H53.12ZM94.9385 51.504C94.9385 52.784 94.8532 53.936 94.6825 54.96H68.7625C68.9758 57.52 69.8718 59.5253 71.4505 60.976C73.0292 62.4267 74.9705 63.152 77.2745 63.152C80.6025 63.152 82.9705 61.7227 84.3785 58.864H94.0425C93.0185 62.2773 91.0558 65.0933 88.1545 67.312C85.2532 69.488 81.6905 70.576 77.4665 70.576C74.0532 70.576 70.9812 69.8293 68.2505 68.336C65.5625 66.8 63.4505 64.6453 61.9145 61.872C60.4212 59.0987 59.6745 55.8987 59.6745 52.272C59.6745 48.6027 60.4212 45.3813 61.9145 42.608C63.4078 39.8347 65.4985 37.7013 68.1865 36.208C70.8745 34.7147 73.9678 33.968 77.4665 33.968C80.8372 33.968 83.8452 34.6933 86.4905 36.144C89.1785 37.5947 91.2478 39.664 92.6985 42.352C94.1918 44.9973 94.9385 48.048 94.9385 51.504ZM85.6585 48.944C85.6158 46.64 84.7838 44.8053 83.1625 43.44C81.5412 42.032 79.5572 41.328 77.2105 41.328C74.9918 41.328 73.1145 42.0107 71.5785 43.376C70.0852 44.6987 69.1678 46.5547 68.8265 48.944H85.6585ZM134.951 34.544V70H125.927V65.52C124.775 67.056 123.26 68.272 121.383 69.168C119.548 70.0213 117.543 70.448 115.367 70.448C112.593 70.448 110.14 69.872 108.007 68.72C105.873 67.5253 104.188 65.7973 102.951 63.536C101.756 61.232 101.159 58.5013 101.159 55.344V34.544H110.119V54.064C110.119 56.88 110.823 59.056 112.231 60.592C113.639 62.0853 115.559 62.832 117.991 62.832C120.465 62.832 122.407 62.0853 123.815 60.592C125.223 59.056 125.927 56.88 125.927 54.064V34.544H134.951Z" fill="#FAFAFA"/>
<path d="M191.617 39.152C191.617 41.5413 191.041 43.7813 189.889 45.872C188.78 47.9627 187.009 49.648 184.577 50.928C182.188 52.208 179.158 52.848 175.489 52.848H168.001V70H159.041V25.328H175.489C178.945 25.328 181.889 25.9253 184.321 27.12C186.753 28.3147 188.566 29.9573 189.761 32.048C190.998 34.1387 191.617 36.5067 191.617 39.152ZM175.105 45.616C177.58 45.616 179.414 45.0613 180.609 43.952C181.804 42.8 182.401 41.2 182.401 39.152C182.401 34.8 179.969 32.624 175.105 32.624H168.001V45.616H175.105ZM230.939 51.504C230.939 52.784 230.853 53.936 230.683 54.96H204.763C204.976 57.52 205.872 59.5253 207.451 60.976C209.029 62.4267 210.971 63.152 213.275 63.152C216.603 63.152 218.971 61.7227 220.379 58.864H230.043C229.019 62.2773 227.056 65.0933 224.155 67.312C221.253 69.488 217.691 70.576 213.467 70.576C210.053 70.576 206.981 69.8293 204.251 68.336C201.563 66.8 199.451 64.6453 197.915 61.872C196.421 59.0987 195.674 55.8987 195.674 52.272C195.674 48.6027 196.421 45.3813 197.915 42.608C199.408 39.8347 201.499 37.7013 204.187 36.208C206.875 34.7147 209.968 33.968 213.467 33.968C216.837 33.968 219.845 34.6933 222.491 36.144C225.179 37.5947 227.248 39.664 228.699 42.352C230.192 44.9973 230.939 48.048 230.939 51.504ZM221.659 48.944C221.616 46.64 220.784 44.8053 219.163 43.44C217.541 42.032 215.557 41.328 213.211 41.328C210.992 41.328 209.115 42.0107 207.579 43.376C206.085 44.6987 205.168 46.5547 204.827 48.944H221.659ZM247.911 41.904V59.056C247.911 60.2507 248.188 61.1253 248.743 61.68C249.34 62.192 250.321 62.448 251.687 62.448H255.847V70H250.215C242.663 70 238.887 66.3307 238.887 58.992V41.904H234.663V34.544H238.887V25.776H247.911V34.544H255.847V41.904H247.911Z" fill="#37D6CC"/>
</svg>
